<svg width="411" height="381" viewBox="0 0 411 381" fill="none" xmlns="http://www.w3.org/2000/svg">
<g clip-path="url(#clip0_4532_1988)">
<path d="M0.479793 203.73C0.479793 203.73 2.7998 275.73 62.9098 323.73C123.02 371.73 206.32 375.16 273.75 379.73C341.18 384.3 392.98 346.11 400.75 288.41C408.52 230.71 357.03 213.77 329.07 148.08C301.11 82.3902 303.64 60.8002 244.49 20.4002C185.34 -19.9998 92.7998 4.81023 44.2898 74.0002C-4.2202 143.19 0.479793 203.73 0.479793 203.73Z" fill="#DB598D"/>
<path opacity="0.7" d="M0.479793 203.73C0.479793 203.73 2.7998 275.73 62.9098 323.73C123.02 371.73 206.32 375.16 273.75 379.73C341.18 384.3 392.98 346.11 400.75 288.41C408.52 230.71 357.03 213.77 329.07 148.08C301.11 82.3902 303.64 60.8002 244.49 20.4002C185.34 -19.9998 92.7998 4.81023 44.2898 74.0002C-4.2202 143.19 0.479793 203.73 0.479793 203.73Z" fill="white"/>
<path d="M28.6101 109.69V83.9204C28.6101 65.6804 43.7701 50.8404 62.4001 50.8404C81.0301 50.8404 96.1901 65.6804 96.1901 83.9204V109.69H109.66V83.9204C109.66 58.4104 88.4601 37.6504 62.4001 37.6504C36.3401 37.6504 15.1401 58.4104 15.1401 83.9204V109.69H28.6101Z" stroke="#263238" stroke-width="1.16634" stroke-linecap="round" stroke-linejoin="round"/>
<path d="M113.32 109.87H10.1401V195.22H113.32V109.87Z" stroke="#263238" stroke-width="1.16634" stroke-linecap="round" stroke-linejoin="round"/>
<path d="M72.4602 145.321C72.3731 142.399 71.1512 139.626 69.0537 137.59C66.9562 135.555 64.1482 134.416 61.2252 134.416C58.3022 134.416 55.4942 135.555 53.3968 137.59C51.2993 139.626 50.0774 142.399 49.9902 145.321C50.0023 147.318 50.5578 149.274 51.5972 150.979C52.6366 152.685 54.1207 154.075 55.8902 155.001L54.0002 174.381H68.4502L66.5602 155.001C68.3298 154.075 69.8138 152.685 70.8532 150.979C71.8927 149.274 72.4482 147.318 72.4602 145.321Z" stroke="#263238" stroke-width="1.16634" stroke-linecap="round" stroke-linejoin="round"/>
<path d="M177.64 197.99L151.95 196.3V195.88L148.79 196.09L145.64 195.88V196.3L119.95 197.99L101 353.79H119.95L148.16 229.57H149.43L177.64 353.79H196.59L177.64 197.99Z" fill="#263238" stroke="#263238" stroke-width="1.16634" stroke-linecap="round" stroke-linejoin="round"/>
<path d="M101 353.779L96.3698 360.939L82.0498 367.259C81.2954 367.676 80.6648 368.285 80.2222 369.025C79.7796 369.764 79.5407 370.608 79.5298 371.469V376.939H120.37C120.61 373.998 120.61 371.041 120.37 368.099C119.95 363.889 119.95 353.779 119.95 353.779H101Z" fill="#4C4C4C" stroke="#263238" stroke-width="1.16634" stroke-linecap="round" stroke-linejoin="round"/>
<path d="M79.5298 372.31V376.94H120.37C120.37 376.94 120.56 374.94 120.56 372.31H79.5298Z" fill="#263238" stroke="#263238" stroke-width="1.16634" stroke-linecap="round" stroke-linejoin="round"/>
<path d="M196.51 353.779L201.14 360.939L215.46 367.259C216.214 367.676 216.845 368.285 217.288 369.025C217.73 369.764 217.969 370.608 217.98 371.469V376.939H177.14C176.899 373.998 176.899 371.041 177.14 368.099C177.56 363.889 177.56 353.779 177.56 353.779H196.51Z" fill="#4C4C4C" stroke="#263238" stroke-width="1.16634" stroke-linecap="round" stroke-linejoin="round"/>
<path d="M218 372.31V376.94H177.14C177.14 376.94 176.96 374.94 176.95 372.31H218Z" fill="#263238" stroke="#263238" stroke-width="1.16634" stroke-linecap="round" stroke-linejoin="round"/>
<path d="M109.07 125.51C109.07 125.51 79.0698 167.67 79.0698 170.76C79.0698 173.85 83.8398 197.71 91.4198 199.95C98.9998 202.19 103.21 198.27 104.61 190.41C106.01 182.55 101.24 171.32 101.24 171.32L115.24 158.69L109.07 125.51Z" fill="#DB598D" stroke="#263238" stroke-width="1.16634" stroke-linecap="round" stroke-linejoin="round"/>
<path d="M103.25 189.29C103.25 189.29 111.95 187.88 114.2 188.44C116.45 189 118.13 194.34 118.13 194.34C118.13 194.34 118.97 202.2 117.56 203.88C116.15 205.56 109.42 207.53 106.62 208.09C103.82 208.65 97.91 202.2 95.62 198.27C93.33 194.34 97.35 187.6 103.25 189.29Z" fill="#CCCCCC" stroke="#263238" stroke-width="1.16634" stroke-linecap="round" stroke-linejoin="round"/>
<path d="M115.38 123.6L109.07 125.51L119.01 191.86H178.09L187.08 125.89L179.05 122.83L149.41 116.33L115.38 123.6Z" fill="#DB598D" stroke="#263238" stroke-width="1.16634" stroke-linecap="round" stroke-linejoin="round"/>
<path d="M181.34 145.78L180.01 155.34L169.68 157.82L159.16 153.62L159.93 145.01L181.34 145.78Z" fill="#263238" stroke="#263238" stroke-width="1.16634" stroke-linecap="round" stroke-linejoin="round"/>
<path d="M170.35 155.34C171.355 155.34 172.17 154.525 172.17 153.52C172.17 152.515 171.355 151.7 170.35 151.7C169.345 151.7 168.53 152.515 168.53 153.52C168.53 154.525 169.345 155.34 170.35 155.34Z" fill="#4C4C4C" stroke="#263238" stroke-width="1.16634" stroke-linecap="round" stroke-linejoin="round"/>
<path d="M143.1 128.57L148.65 135.07L141.57 180.19L149.03 192.05L157.83 179.62L150.37 135.26L156.68 129.14L149.99 120.54L143.1 128.57Z" fill="#263238" stroke="#263238" stroke-width="1.16634" stroke-linecap="round" stroke-linejoin="round"/>
<path d="M137.75 117.29L112.32 123.6L113.09 126.66L137.94 119.77L137.75 117.29Z" fill="#263238" stroke="#263238" stroke-width="1.16634" stroke-linecap="round" stroke-linejoin="round"/>
<path d="M158.59 116.52L184.02 122.83L183.26 125.89L158.4 119.01L158.59 116.52Z" fill="#263238" stroke="#263238" stroke-width="1.16634" stroke-linecap="round" stroke-linejoin="round"/>
<path d="M184 122.83C184 122.83 193.62 125 199.51 128.37C205.4 131.74 206.81 139.32 203.44 147.74C200.07 156.16 189.69 155.04 184.92 152.74C180.15 150.44 178.74 142.08 179.58 138.43" fill="#DB598D"/>
<path d="M184 122.83C184 122.83 193.62 125 199.51 128.37C205.4 131.74 206.81 139.32 203.44 147.74C200.07 156.16 189.69 155.04 184.92 152.74C180.15 150.44 178.74 142.08 179.58 138.43" stroke="#263238" stroke-width="1.16634" stroke-linecap="round" stroke-linejoin="round"/>
<path d="M138.9 114.04L136.03 115.95L136.79 135.26L149.22 126.47L162.22 135.45L163.37 116.33L159.93 113.46L138.9 114.04Z" fill="#DB598D" stroke="#263238" stroke-width="1.16634" stroke-linecap="round" stroke-linejoin="round"/>
<path d="M164 91.0698C164 91.0698 171.06 89.3498 172.39 82.2898C173.72 75.2298 161 66.6398 152.18 65.1198C143.36 63.5998 130.43 72.7498 128.33 79.0498C126.23 85.3498 134.43 91.6398 143.21 92.9798C151.99 94.3198 164 91.0698 164 91.0698Z" fill="#263238" stroke="#263238" stroke-width="1.16634" stroke-linecap="round" stroke-linejoin="round"/>
<path d="M137.68 92.2197C137.68 92.2197 133.86 86.2997 132.91 91.4497C131.96 96.5997 135.96 98.8897 137.68 98.6997C139.4 98.5097 137.68 92.2197 137.68 92.2197Z" fill="#CCCCCC" stroke="#263238" stroke-width="1.16634" stroke-linecap="round" stroke-linejoin="round"/>
<path d="M162.49 92.2197C162.49 92.2197 166.31 86.2997 167.26 91.4497C168.21 96.5997 164.26 98.8897 162.49 98.6997C160.72 98.5097 162.49 92.2197 162.49 92.2197Z" fill="#CCCCCC" stroke="#263238" stroke-width="1.16634" stroke-linecap="round" stroke-linejoin="round"/>
<path d="M138.52 103.899V116.519L149.22 126.469L161.27 116.139V104.289L138.52 103.899Z" fill="#CCCCCC" stroke="#263238" stroke-width="1.16634" stroke-linecap="round" stroke-linejoin="round"/>
<path d="M136.92 88.4C136.92 88.4 136.34 100.23 137.3 104.05C138.26 107.87 144.55 115.88 149.51 117.6C154.47 119.32 161.34 109.01 162.87 105.6C164.4 102.19 163.82 87.66 163.82 87.66C163.82 87.66 161.73 82.66 157.53 81.18C153.33 79.7 140.35 77 136.92 88.4Z" fill="#CCCCCC" stroke="#263238" stroke-width="1.16634" stroke-linecap="round" stroke-linejoin="round"/>
<path d="M144.85 94.6798C144.85 95.5798 144.44 96.3098 143.93 96.3098C143.42 96.3098 143.01 95.5798 143.01 94.6798C143.01 93.7798 143.42 93.0498 143.93 93.0498C144.44 93.0498 144.85 93.7798 144.85 94.6798Z" fill="#263238"/>
<path d="M156.56 94.6798C156.56 95.5798 156.15 96.3098 155.64 96.3098C155.13 96.3098 154.72 95.5798 154.72 94.6798C154.72 93.7798 155.13 93.0498 155.64 93.0498C156.15 93.0498 156.56 93.7798 156.56 94.6798Z" fill="#263238"/>
<path d="M146.84 99.2401C146.652 99.1952 146.456 99.1935 146.267 99.2351C146.078 99.2767 145.901 99.3605 145.75 99.4804C145.598 99.6002 145.475 99.7528 145.391 99.9268C145.307 100.101 145.263 100.292 145.263 100.485C145.263 100.678 145.307 100.869 145.391 101.043C145.475 101.217 145.598 101.37 145.75 101.49C145.901 101.61 146.078 101.693 146.267 101.735C146.456 101.777 146.652 101.775 146.84 101.73C147.242 101.739 147.634 101.608 147.95 101.36C148.245 101.708 148.612 101.988 149.024 102.183C149.437 102.378 149.886 102.482 150.342 102.49C150.798 102.497 151.25 102.408 151.669 102.227C152.088 102.046 152.463 101.778 152.77 101.44C153.067 101.633 153.415 101.734 153.77 101.73C153.958 101.775 154.154 101.777 154.343 101.735C154.532 101.693 154.709 101.61 154.86 101.49C155.012 101.37 155.135 101.217 155.219 101.043C155.303 100.869 155.347 100.678 155.347 100.485C155.347 100.292 155.303 100.101 155.219 99.9268C155.135 99.7528 155.012 99.6002 154.86 99.4804C154.709 99.3605 154.532 99.2767 154.343 99.2351C154.154 99.1935 153.958 99.1952 153.77 99.2401" fill="#CCCCCC"/>
<path d="M146.84 99.2401C146.652 99.1952 146.456 99.1935 146.267 99.2351C146.078 99.2767 145.901 99.3605 145.75 99.4804C145.598 99.6002 145.475 99.7528 145.391 99.9268C145.307 100.101 145.263 100.292 145.263 100.485C145.263 100.678 145.307 100.869 145.391 101.043C145.475 101.217 145.598 101.37 145.75 101.49C145.901 101.61 146.078 101.693 146.267 101.735C146.456 101.777 146.652 101.775 146.84 101.73C147.242 101.739 147.634 101.608 147.95 101.36C148.245 101.708 148.612 101.988 149.024 102.183C149.437 102.378 149.886 102.482 150.342 102.49C150.798 102.497 151.25 102.408 151.669 102.227C152.088 102.046 152.463 101.778 152.77 101.44C153.067 101.633 153.415 101.734 153.77 101.73C153.958 101.775 154.154 101.777 154.343 101.735C154.532 101.693 154.709 101.61 154.86 101.49C155.012 101.37 155.135 101.217 155.219 101.043C155.303 100.869 155.347 100.678 155.347 100.485C155.347 100.292 155.303 100.101 155.219 99.9268C155.135 99.7528 155.012 99.6002 154.86 99.4804C154.709 99.3605 154.532 99.2767 154.343 99.2351C154.154 99.1935 153.958 99.1952 153.77 99.2401" stroke="#263238" stroke-width="1.16634" stroke-linecap="round" stroke-linejoin="round"/>
<path d="M148.36 107.069H152.35" stroke="#263238" stroke-width="1.16634" stroke-linecap="round" stroke-linejoin="round"/>
<path d="M136.48 91.2695C136.48 91.2695 136.62 95.1095 137.9 94.1095C139.18 93.1095 139.6 86.5895 138.47 85.7395C137.34 84.8895 136.48 89.2895 136.48 91.2695Z" fill="#263238" stroke="#263238" stroke-width="1.16634" stroke-linecap="round" stroke-linejoin="round"/>
<path d="M161.11 91.2695C161.11 91.2695 161.26 95.1095 162.53 94.1095C163.8 93.1095 164.24 86.5895 163.1 85.7395C161.96 84.8895 161.11 89.2895 161.11 91.2695Z" fill="#263238" stroke="#263238" stroke-width="1.16634" stroke-linecap="round" stroke-linejoin="round"/>
<path d="M136.48 88.15C136.48 88.15 136.91 88.5 136.9 88.67C138.75 89.67 143 91.51 149.9 91.88C154.793 92.049 159.639 90.862 163.9 88.45C163.9 87.94 163.9 87.64 163.9 87.63C163.73 83.16 160.41 80.18 156.3 79.04C152.26 77.9276 147.969 78.1415 144.06 79.65C142.077 80.3977 140.328 81.657 138.99 83.3C138.48 83.86 135.78 87.59 136.48 88.15Z" fill="#4C4C4C" stroke="#263238" stroke-width="1.16634" stroke-linecap="round" stroke-linejoin="round"/>
<path d="M136.92 88.3994C141.185 89.3427 145.563 89.6627 149.92 89.3494C158.13 88.9694 163.84 88.3994 163.84 88.3994C160.067 91.9362 155.197 94.0748 150.04 94.4594C147.521 94.623 145.002 94.1543 142.71 93.0959C140.419 92.0375 138.428 90.4231 136.92 88.3994Z" fill="#4C4C4C" stroke="#263238" stroke-width="1.16634" stroke-linecap="round" stroke-linejoin="round"/>
<path d="M115.96 145.78L117.29 155.34L127.62 157.82L138.13 153.62L137.37 145.01L115.96 145.78Z" fill="#263238" stroke="#263238" stroke-width="1.16634" stroke-linecap="round" stroke-linejoin="round"/>
<path d="M126.95 155.34C127.955 155.34 128.77 154.525 128.77 153.52C128.77 152.515 127.955 151.7 126.95 151.7C125.945 151.7 125.13 152.515 125.13 153.52C125.13 154.525 125.945 155.34 126.95 155.34Z" fill="#4C4C4C" stroke="#263238" stroke-width="1.16634" stroke-linecap="round" stroke-linejoin="round"/>
<path d="M178.76 191.25H118.13V200.79H178.76V191.25Z" fill="#4C4C4C" stroke="#263238" stroke-width="1.16634" stroke-linecap="round" stroke-linejoin="round"/>
<path d="M129.78 191.81H116.59C115.115 191.81 113.92 193.005 113.92 194.48V200.93C113.92 202.404 115.115 203.6 116.59 203.6H129.78C131.255 203.6 132.45 202.404 132.45 200.93V194.48C132.45 193.005 131.255 191.81 129.78 191.81Z" fill="#4C4C4C" stroke="#263238" stroke-width="1.16634" stroke-linecap="round" stroke-linejoin="round"/>
<path d="M178.06 191.81H164.87C163.395 191.81 162.2 193.005 162.2 194.48V200.93C162.2 202.404 163.395 203.6 164.87 203.6H178.06C179.534 203.6 180.73 202.404 180.73 200.93V194.48C180.73 193.005 179.534 191.81 178.06 191.81Z" fill="#4C4C4C" stroke="#263238" stroke-width="1.16634" stroke-linecap="round" stroke-linejoin="round"/>
<path d="M156.02 191.81H142.83V200.23H156.02V191.81Z" fill="white" stroke="#263238" stroke-width="1.16634" stroke-linecap="round" stroke-linejoin="round"/>
<path d="M101.28 171.32C101.28 171.32 92.86 170.76 89.77 165.42" stroke="#263238" stroke-width="1.16634" stroke-linecap="round" stroke-linejoin="round"/>
<path d="M194.9 146.62C202.577 146.62 208.8 140.083 208.8 132.02C208.8 123.957 202.577 117.42 194.9 117.42C187.223 117.42 181 123.957 181 132.02C181 140.083 187.223 146.62 194.9 146.62Z" fill="#DB598D" stroke="#263238" stroke-width="1.16634" stroke-linecap="round" stroke-linejoin="round"/>
<path d="M194.9 134.38C200.909 134.38 205.78 130.015 205.78 124.63C205.78 119.245 200.909 114.88 194.9 114.88C188.891 114.88 184.02 119.245 184.02 124.63C184.02 130.015 188.891 134.38 194.9 134.38Z" fill="#DB598D" stroke="#263238" stroke-width="1.16634" stroke-linecap="round" stroke-linejoin="round"/>
<path d="M194.9 127.21C200.909 127.21 205.78 122.845 205.78 117.46C205.78 112.075 200.909 107.71 194.9 107.71C188.891 107.71 184.02 112.075 184.02 117.46C184.02 122.845 188.891 127.21 194.9 127.21Z" fill="#CCCCCC" stroke="#263238" stroke-width="1.16634" stroke-linecap="round" stroke-linejoin="round"/>
<path d="M177.42 96.4403C177.42 96.4403 177.61 110.82 178.34 115.06C179.07 119.3 182.03 124.83 186.09 124.83C188.794 124.764 191.471 124.267 194.02 123.36C194.02 123.36 198.81 125.94 203.42 125.2C208.03 124.46 207.29 118.01 207.29 115.2C207.29 112.39 206.74 91.6003 206.74 91.6003C206.74 91.6003 207.11 89.6003 205.26 89.2103C204.353 89.006 203.429 88.8821 202.5 88.8403V84.4103C202.16 83.903 201.687 83.498 201.134 83.239C200.581 82.98 199.967 82.8767 199.36 82.9403C196.97 82.9403 196.78 83.4903 196.78 83.4903V79.4303C196.78 79.4303 194.78 76.2003 192.17 77.7703C191.644 78.0723 191.201 78.4996 190.88 79.0143C190.559 79.529 190.37 80.115 190.33 80.7203L190.14 84.6003C190.14 84.6003 185.72 82.9403 185.35 85.5203C184.98 88.1003 184.24 104 184.24 104C183.978 101.5 183.486 99.0298 182.77 96.6203C181.85 94.2203 177.42 94.2203 177.42 96.4403Z" fill="#CCCCCC" stroke="#263238" stroke-width="1.16634" stroke-linecap="round" stroke-linejoin="round"/>
<path d="M190.14 84.6396L190.51 101.6" stroke="#263238" stroke-width="1.16634" stroke-linecap="round" stroke-linejoin="round"/>
<path d="M196.78 83.5303L196.97 101.78" stroke="#263238" stroke-width="1.16634" stroke-linecap="round" stroke-linejoin="round"/>
<path d="M202.5 88.8799L202.13 101.6" stroke="#263238" stroke-width="1.16634" stroke-linecap="round" stroke-linejoin="round"/>
<path d="M187.75 101.42L204.53 102.15" stroke="#263238" stroke-width="1.16634" stroke-linecap="round" stroke-linejoin="round"/>
<path d="M184.24 104C184.245 104.696 184.411 105.381 184.725 106.002C185.039 106.623 185.492 107.163 186.05 107.58C187.87 108.72 191.97 111.68 192.42 116.46" stroke="#263238" stroke-width="1.16634" stroke-linecap="round" stroke-linejoin="round"/>
<path d="M31.8699 376.5H17.6099L36.6199 243.99H50.8799L31.8699 376.5Z" fill="#263238" stroke="#263238" stroke-width="1.16634" stroke-miterlimit="10"/>
<path d="M60.3899 376.5H74.6399L55.6299 243.99H41.3799L60.3899 376.5Z" fill="white" stroke="#263238" stroke-width="1.16634" stroke-miterlimit="10"/>
<path d="M234.18 376.5H219.93L238.93 243.99H253.19L234.18 376.5Z" fill="#263238" stroke="#263238" stroke-width="1.16634" stroke-miterlimit="10"/>
<path d="M262.7 376.5H276.95L257.94 243.99H243.69L262.7 376.5Z" fill="white" stroke="#263238" stroke-width="1.16634" stroke-miterlimit="10"/>
<path d="M272.66 223.21H0.72998V249.57H272.66V223.21Z" fill="#F1B0CD" stroke="#263238" stroke-width="1.16634" stroke-miterlimit="10"/>
<path d="M279.29 223.21H7.35986V249.57H279.29V223.21Z" fill="#F1B0CD" stroke="#263238" stroke-width="1.16634" stroke-miterlimit="10"/>
<path d="M11.8101 249.57H34.8901L46.8201 223.21H23.7401L11.8101 249.57Z" fill="#263238"/>
<path d="M103.17 223.21H80.0901L68.1602 249.57H91.2402L103.17 223.21Z" fill="#263238"/>
<path d="M272.21 223.21H249.13L237.21 249.57H260.29L272.21 223.21Z" fill="#263238"/>
<path d="M215.87 223.21H192.78L180.86 249.57H203.94L215.87 223.21Z" fill="#263238"/>
<path d="M159.52 223.21H136.44L124.51 249.57H147.59L159.52 223.21Z" fill="#263238"/>
<path d="M277.8 234.9H232.8" stroke="#263238" stroke-width="1.16634" stroke-miterlimit="10"/>
<path d="M277.01 239.31H269.91" stroke="#263238" stroke-width="1.16634" stroke-miterlimit="10"/>
<path d="M6.20996 238.21H51.21" stroke="#263238" stroke-width="1.16634" stroke-miterlimit="10"/>
<path d="M7 233.25H63.84" stroke="#263238" stroke-width="1.16634" stroke-miterlimit="10"/>
<path d="M353.51 370.72H276.37V376.51H353.51V370.72Z" fill="#263238" stroke="#263238" stroke-width="1.16634" stroke-linecap="round" stroke-linejoin="round"/>
<path d="M340.49 370.56H289.39L309.42 261.6H320.46L340.49 370.56Z" fill="#F1B0CD" stroke="#263238" stroke-width="1.16634" stroke-linecap="round" stroke-linejoin="round"/>
<path d="M301.98 302.1H327.91L325.42 288.6H304.46L301.98 302.1Z" fill="white" stroke="#263238" stroke-width="1.16634" stroke-linecap="round" stroke-linejoin="round"/>
<path d="M332.81 352.37L334.09 359.82" stroke="#263238" stroke-width="1.16634" stroke-linecap="round" stroke-linejoin="round"/>
<path d="M318.22 267.62L331.2 343" stroke="#263238" stroke-width="1.16634" stroke-linecap="round" stroke-linejoin="round"/>
<path d="M302.919 47.1818V85H296.013L279.56 61.1974H279.283V85H271.287V47.1818H278.304L294.628 70.9659H294.96V47.1818H302.919ZM344.278 66.0909C344.278 70.215 343.496 73.7235 341.933 76.6165C340.382 79.5095 338.264 81.7192 335.581 83.2457C332.909 84.7599 329.905 85.517 326.569 85.517C323.208 85.517 320.192 84.7538 317.521 83.2273C314.85 81.7008 312.738 79.491 311.187 76.598C309.636 73.705 308.86 70.2027 308.86 66.0909C308.86 61.9669 309.636 58.4583 311.187 55.5653C312.738 52.6723 314.85 50.4687 317.521 48.9545C320.192 47.428 323.208 46.6648 326.569 46.6648C329.905 46.6648 332.909 47.428 335.581 48.9545C338.264 50.4687 340.382 52.6723 341.933 55.5653C343.496 58.4583 344.278 61.9669 344.278 66.0909ZM336.172 66.0909C336.172 63.4195 335.771 61.1667 334.971 59.3324C334.183 57.4981 333.069 56.107 331.629 55.1591C330.189 54.2112 328.502 53.7372 326.569 53.7372C324.636 53.7372 322.95 54.2112 321.51 55.1591C320.069 56.107 318.949 57.4981 318.149 59.3324C317.361 61.1667 316.967 63.4195 316.967 66.0909C316.967 68.7623 317.361 71.0152 318.149 72.8494C318.949 74.6837 320.069 76.0748 321.51 77.0227C322.95 77.9706 324.636 78.4446 326.569 78.4446C328.502 78.4446 330.189 77.9706 331.629 77.0227C333.069 76.0748 334.183 74.6837 334.971 72.8494C335.771 71.0152 336.172 68.7623 336.172 66.0909Z" fill="#263238"/>
<path d="M236.222 151.307V141.438L257.673 107.636H266.443V121.034H261.355L248.801 140.926V141.335H279.866V151.307H236.222ZM261.509 160V148.29L261.764 143.969V107.636H273.602V160H261.509ZM308.158 161.278C303.589 161.278 299.652 160.196 296.345 158.031C293.038 155.849 290.49 152.722 288.7 148.648C286.911 144.557 286.024 139.639 286.041 133.895C286.058 128.151 286.953 123.276 288.726 119.27C290.516 115.247 293.055 112.187 296.345 110.091C299.652 107.977 303.589 106.92 308.158 106.92C312.726 106.92 316.663 107.977 319.97 110.091C323.294 112.187 325.851 115.247 327.641 119.27C329.43 123.293 330.317 128.168 330.3 133.895C330.3 139.656 329.405 144.582 327.615 148.673C325.825 152.764 323.277 155.892 319.97 158.057C316.68 160.205 312.743 161.278 308.158 161.278ZM308.158 150.923C310.885 150.923 313.092 149.534 314.78 146.756C316.467 143.96 317.303 139.673 317.286 133.895C317.286 130.111 316.902 126.991 316.135 124.537C315.368 122.065 314.303 120.224 312.939 119.014C311.575 117.804 309.982 117.199 308.158 117.199C305.447 117.199 303.257 118.571 301.587 121.315C299.916 124.043 299.072 128.236 299.055 133.895C299.038 137.73 299.405 140.909 300.155 143.432C300.922 145.955 301.996 147.838 303.376 149.082C304.757 150.31 306.351 150.923 308.158 150.923ZM357.466 160.716C353.477 160.716 349.94 160.034 346.855 158.67C343.787 157.29 341.366 155.389 339.594 152.969C337.821 150.548 336.918 147.761 336.884 144.608H349.616C349.668 145.75 350.034 146.764 350.716 147.651C351.398 148.52 352.327 149.202 353.503 149.696C354.679 150.19 356.017 150.438 357.517 150.438C359.017 150.438 360.338 150.173 361.48 149.645C362.639 149.099 363.543 148.358 364.19 147.42C364.838 146.466 365.153 145.375 365.136 144.148C365.153 142.92 364.804 141.83 364.088 140.875C363.372 139.92 362.358 139.179 361.045 138.651C359.75 138.122 358.216 137.858 356.443 137.858H351.355V128.858H356.443C357.994 128.858 359.358 128.602 360.534 128.091C361.727 127.58 362.656 126.864 363.321 125.943C363.986 125.006 364.31 123.932 364.293 122.722C364.31 121.545 364.028 120.514 363.449 119.628C362.886 118.724 362.094 118.026 361.071 117.531C360.065 117.037 358.898 116.79 357.568 116.79C356.17 116.79 354.901 117.037 353.759 117.531C352.634 118.026 351.739 118.724 351.074 119.628C350.409 120.531 350.06 121.58 350.026 122.773H337.932C337.966 119.653 338.835 116.909 340.54 114.54C342.244 112.153 344.563 110.287 347.494 108.94C350.443 107.594 353.801 106.92 357.568 106.92C361.318 106.92 364.616 107.577 367.463 108.889C370.31 110.202 372.526 111.991 374.111 114.259C375.696 116.509 376.489 119.057 376.489 121.903C376.506 124.852 375.543 127.281 373.599 129.19C371.673 131.099 369.193 132.276 366.159 132.719V133.128C370.216 133.605 373.276 134.918 375.338 137.065C377.418 139.213 378.449 141.898 378.432 145.119C378.432 148.153 377.537 150.847 375.747 153.199C373.974 155.534 371.503 157.375 368.332 158.722C365.179 160.051 361.557 160.716 357.466 160.716Z" fill="#263238"/>
<path d="M200.034 200H194.761L202.795 176.727H209.136L217.159 200H211.886L206.057 182.045H205.875L200.034 200ZM199.705 190.852H212.159V194.693H199.705V190.852ZM234.335 176.727H239.256V191.841C239.256 193.538 238.85 195.023 238.04 196.295C237.237 197.568 236.112 198.561 234.665 199.273C233.218 199.977 231.532 200.33 229.608 200.33C227.676 200.33 225.987 199.977 224.54 199.273C223.093 198.561 221.968 197.568 221.165 196.295C220.362 195.023 219.96 193.538 219.96 191.841V176.727H224.881V191.42C224.881 192.307 225.074 193.095 225.46 193.784C225.854 194.473 226.407 195.015 227.119 195.409C227.831 195.803 228.661 196 229.608 196C230.563 196 231.392 195.803 232.097 195.409C232.809 195.015 233.358 194.473 233.744 193.784C234.138 193.095 234.335 192.307 234.335 191.42V176.727ZM242.418 180.784V176.727H261.531V180.784H254.406V200H249.543V180.784H242.418ZM285.003 188.364C285.003 190.902 284.522 193.061 283.56 194.841C282.605 196.621 281.302 197.981 279.651 198.92C278.007 199.852 276.158 200.318 274.105 200.318C272.037 200.318 270.181 199.848 268.537 198.909C266.893 197.97 265.594 196.61 264.639 194.83C263.685 193.049 263.207 190.894 263.207 188.364C263.207 185.826 263.685 183.667 264.639 181.886C265.594 180.106 266.893 178.75 268.537 177.818C270.181 176.879 272.037 176.409 274.105 176.409C276.158 176.409 278.007 176.879 279.651 177.818C281.302 178.75 282.605 180.106 283.56 181.886C284.522 183.667 285.003 185.826 285.003 188.364ZM280.014 188.364C280.014 186.72 279.768 185.333 279.276 184.205C278.791 183.076 278.105 182.22 277.219 181.636C276.332 181.053 275.295 180.761 274.105 180.761C272.916 180.761 271.878 181.053 270.991 181.636C270.105 182.22 269.416 183.076 268.923 184.205C268.438 185.333 268.196 186.72 268.196 188.364C268.196 190.008 268.438 191.394 268.923 192.523C269.416 193.652 270.105 194.508 270.991 195.091C271.878 195.674 272.916 195.966 274.105 195.966C275.295 195.966 276.332 195.674 277.219 195.091C278.105 194.508 278.791 193.652 279.276 192.523C279.768 191.394 280.014 190.008 280.014 188.364ZM288.648 200V176.727H297.83C299.587 176.727 301.087 177.042 302.33 177.67C303.58 178.292 304.53 179.174 305.182 180.318C305.841 181.455 306.17 182.792 306.17 184.33C306.17 185.875 305.837 187.205 305.17 188.318C304.504 189.424 303.538 190.273 302.273 190.864C301.015 191.455 299.492 191.75 297.705 191.75H291.557V187.795H296.909C297.848 187.795 298.629 187.667 299.25 187.409C299.871 187.152 300.333 186.765 300.636 186.25C300.947 185.735 301.102 185.095 301.102 184.33C301.102 183.557 300.947 182.905 300.636 182.375C300.333 181.845 299.867 181.443 299.239 181.17C298.617 180.89 297.833 180.75 296.886 180.75H293.568V200H288.648ZM301.216 189.409L307 200H301.568L295.909 189.409H301.216ZM314.568 176.727V200H309.648V176.727H314.568ZM318.366 200V197.08L329.98 180.784H318.344V176.727H336.162V179.648L324.537 195.943H336.185V200H318.366ZM343.972 200H338.699L346.733 176.727H353.074L361.097 200H355.824L349.994 182.045H349.812L343.972 200ZM343.642 190.852H356.097V194.693H343.642V190.852ZM372.148 200H363.898V176.727H372.216C374.557 176.727 376.572 177.193 378.261 178.125C379.951 179.049 381.25 180.379 382.159 182.114C383.076 183.848 383.534 185.924 383.534 188.341C383.534 190.765 383.076 192.848 382.159 194.591C381.25 196.333 379.943 197.67 378.239 198.602C376.542 199.534 374.511 200 372.148 200ZM368.818 195.784H371.943C373.398 195.784 374.621 195.527 375.614 195.011C376.614 194.489 377.364 193.682 377.864 192.591C378.371 191.492 378.625 190.076 378.625 188.341C378.625 186.621 378.371 185.216 377.864 184.125C377.364 183.034 376.617 182.231 375.625 181.716C374.633 181.201 373.409 180.943 371.955 180.943H368.818V195.784ZM408.565 188.364C408.565 190.902 408.084 193.061 407.122 194.841C406.168 196.621 404.865 197.981 403.213 198.92C401.569 199.852 399.721 200.318 397.668 200.318C395.599 200.318 393.743 199.848 392.099 198.909C390.455 197.97 389.156 196.61 388.202 194.83C387.247 193.049 386.77 190.894 386.77 188.364C386.77 185.826 387.247 183.667 388.202 181.886C389.156 180.106 390.455 178.75 392.099 177.818C393.743 176.879 395.599 176.409 397.668 176.409C399.721 176.409 401.569 176.879 403.213 177.818C404.865 178.75 406.168 180.106 407.122 181.886C408.084 183.667 408.565 185.826 408.565 188.364ZM403.577 188.364C403.577 186.72 403.33 185.333 402.838 184.205C402.353 183.076 401.668 182.22 400.781 181.636C399.895 181.053 398.857 180.761 397.668 180.761C396.478 180.761 395.44 181.053 394.554 181.636C393.668 182.22 392.978 183.076 392.486 184.205C392.001 185.333 391.759 186.72 391.759 188.364C391.759 190.008 392.001 191.394 392.486 192.523C392.978 193.652 393.668 194.508 394.554 195.091C395.44 195.674 396.478 195.966 397.668 195.966C398.857 195.966 399.895 195.674 400.781 195.091C401.668 194.508 402.353 193.652 402.838 192.523C403.33 191.394 403.577 190.008 403.577 188.364Z" fill="#263238"/>
</g>
<defs>
<clipPath id="clip0_4532_1988">
<rect width="411" height="381" fill="white"/>
</clipPath>
</defs>
</svg>
